<?xml version="1.0" encoding="utf-8"?>
<!-- Generator: Adobe Illustrator 25.2.3, SVG Export Plug-In . SVG Version: 6.00 Build 0)  -->
<svg version="1.1" id="Layer_1" xmlns="http://www.w3.org/2000/svg" xmlns:xlink="http://www.w3.org/1999/xlink" x="0px" y="0px"
	 viewBox="0 0 24 6" style="enable-background:new 0 0 24 6;" xml:space="preserve">
<style type="text/css">
	.st0{fill-opacity:0;}
	.st1{fill:#FFFFFF;fill-opacity:0;}
	.st2{fill:#FFFFFF;}
</style>
<g>
	<g>
		<line class="st0" x1="24" y1="6" x2="0" y2="6"/>
	</g>
</g>
<g>
	<g>
		<rect x="0" y="-9.5" class="st1" width="24" height="24"/>
		<path class="st2" d="M12,6c-0.3,0-0.5-0.1-0.7-0.3l-4-4c-0.4-0.4-0.4-1,0-1.4s1-0.4,1.4,0L12,3.6l3.3-3.2c0.4-0.4,1-0.4,1.4-0.1
			c0.4,0.4,0.4,1,0.1,1.4c0,0-0.1,0.1-0.1,0.1l-4,3.9C12.5,5.9,12.3,6,12,6z"/>
	</g>
</g>
</svg>
