<?xml version="1.0" encoding="utf-8"?>
<!-- Generator: Adobe Illustrator 25.2.3, SVG Export Plug-In . SVG Version: 6.00 Build 0)  -->
<svg version="1.1" id="Layer_1" xmlns="http://www.w3.org/2000/svg" xmlns:xlink="http://www.w3.org/1999/xlink" x="0px" y="0px"
	 viewBox="0 0 285.6 207.9" style="enable-background:new 0 0 285.6 207.9;" xml:space="preserve">
<style type="text/css">
	.st0{fill:#191919;}
</style>
<g>
	<path class="st0" d="M61,207.9c-38.2,0-55.1-33.8-58.7-51.8l-0.4-1.9L1.7,152C-0.5,115.8,17,92,37.2,82.5
		c1.2-30,12.5-50.5,23.3-59.9C73.9,10.8,87.9,7.1,92.3,6.2c7-1.7,14-2.6,21-2.6c30.4,0,49.3,16.1,54.4,21c0,0,0.9,0.9,1.3,1.3
		c2.4,2.4,5.4,5.3,7.7,8.5c3.3,4.4,5.1,9.9,5.1,15.5l0.3,29.5c0,7.3-5.8,13.3-13,13.3h-20.3c-6.7,0-12.3-4.8-13.4-11.5
		c-1.1-6.3-3.7-11.7-7.6-15.7l-0.1,0c-0.3-0.3-0.6-0.5-0.9-0.8c-4.2-3.8-8.7-5.6-14.3-5.6c-2.6,0-5.4,0.4-8.5,1.2l-2.2,0.7h-0.6
		c-1.4,0.4-4.8,1.8-7.9,4.8c-6.4,6.1-9.2,16.5-8.6,31l0.6,13.2v0.2c0,7.3-5.2,13.4-12.2,14.1l-8.4,1c-2,0.2-3.9,1-5.4,2.2
		c-0.1,0.1-0.5,0.5-0.7,0.7l-0.1,0.1c-3.4,3.3-4.4,9.3-4.6,13.8c-0.2,3.1,0.6,6,2.2,8c1.4,1.6,2.7,2.3,4.7,2.3h157.2
		c3.2,0,6.1-1,8.5-2.8c1.1-0.8,1.8-1.7,2.4-2.7c1.3-2.2,1.3-5.4,1.1-7.8l0-0.1c-0.2-1.5-1.8-6.7-3.3-11.3l-0.2-0.7l-0.1-0.8
		c-0.9-5.6,1.5-11.3,6.3-14.5l24.6-15.7c2.1-1.3,4.5-2.1,7-2.1c5.3,0,10.1,3.3,11.9,8.2c4.7,10.4,7,29.6,6.8,36.3h0v1.4
		c0.1,31.8-16.7,55.5-47.2,66.7l-0.1,0c-2.8,1-5.6,1.5-8.5,1.5H61z"/>
	<path class="st0" d="M240.2,138c0.5,4.9,0,9.9-2.5,14c-1.4,2.3-3.1,4-4.9,5.4c-4.3,3.3-9.4,4.9-14.6,4.9H61
		c-5.8,0-9.7-2.7-12.4-5.9c-3.3-4.1-4.8-9.5-4.5-14.9c0.5-9,3-15.9,7.6-20.4c0.5-0.5,1-1,1.5-1.4c3.1-2.5,6.8-4,10.7-4.4l8.3-1
		c1.9-0.2,3.3-2,3.3-4.2l-0.6-13C74.1,79.6,78,66.6,86.5,58.5c6-5.8,12.6-7.4,13.6-7.6h0.4l1-0.3c13.1-3.4,23.6-1.2,32.3,6.8
		c0.3,0.3,0.7,0.6,1,0.9c5.6,5.6,9.1,13.1,10.5,21.2l0,0c0.3,1.9,1.8,3.2,3.5,3.2h20.3c1.7,0,3-1.5,3-3.3L171.8,50
		c0-3.5-1.1-6.9-3.1-9.6c-2.3-3.1-5.5-6.1-8-8.6C149,20.4,124.5,8.4,94.5,16c-3.6,0.7-15.7,3.8-27.4,14.1
		c-10.6,9.3-20.4,30.8-20,59.3c-16,4.8-37.7,23.9-35.4,62l0.1,1.3l0.3,1.3c3,15.2,17.2,43.9,48.9,43.9h166.4l0,0
		c1.8,0,3.5-0.3,5.2-0.9l0,0c14.2-5.2,40.7-19.1,40.6-57.3V139v-0.7c0.3-1.9-1.4-22.7-6.1-32.5l0,0c-0.5-1.8-2.7-2.5-4.2-1.5
		l-24.5,15.6c-1.5,1-2.3,2.7-2,4.5C236.4,124.4,240,135.2,240.2,138z"/>
</g>
<path class="st0" d="M196.2,101.3V4.5c0-3.5,3.8-5.6,6.8-3.8l80.5,48.4c2.9,1.7,2.9,5.9,0,7.7L203,105.2
	C200,106.9,196.2,104.8,196.2,101.3z"/>
</svg>
