<?xml version="1.0" encoding="utf-8"?>
<!-- Generator: Adobe Illustrator 25.2.3, SVG Export Plug-In . SVG Version: 6.00 Build 0)  -->
<svg version="1.1" id="Layer_1" xmlns="http://www.w3.org/2000/svg" xmlns:xlink="http://www.w3.org/1999/xlink" x="0px" y="0px"
	 viewBox="0 0 274 197.9" style="enable-background:new 0 0 274 197.9;" xml:space="preserve">
<style type="text/css">
	.st0{fill:#FFFFFF;}
</style>
<g>
	<path class="st0" d="M228.6,138c0.5,4.9,0,9.9-2.5,14c-1.4,2.3-3.1,4-4.9,5.4c-4.3,3.3-9.4,4.9-14.6,4.9l-157.2,0
		c-5.8,0-9.7-2.7-12.4-5.9c-3.3-4.1-4.8-9.5-4.5-14.9c0.5-9,3-15.9,7.6-20.4c0.5-0.5,1-1,1.5-1.4c3.1-2.5,6.8-4,10.7-4.4l8.3-1
		c1.9-0.2,3.3-2,3.3-4.2l-0.6-13c-0.8-17.5,3.1-30.5,11.6-38.6c6-5.8,12.6-7.4,13.6-7.6l0.4,0l1-0.3c13.1-3.4,23.6-1.2,32.3,6.8
		c0.3,0.3,0.7,0.6,1,0.9c5.6,5.6,9.1,13.1,10.5,21.2v0c0.3,1.9,1.8,3.2,3.5,3.2h20.3c1.7,0,3-1.5,3-3.3L160.2,50
		c0-3.5-1.1-6.9-3.1-9.6c-2.3-3.1-5.5-6.1-8-8.6C137.4,20.4,112.9,8.4,82.9,16c-3.6,0.7-15.7,3.8-27.4,14.1
		c-10.6,9.3-20.4,30.8-20,59.3c-16,4.8-37.7,23.9-35.4,62l0.1,1.3l0.3,1.3c3,15.2,17.2,43.9,48.9,43.9h166.4h0
		c1.8,0,3.5-0.3,5.2-0.9l0,0c14.2-5.2,40.7-19.1,40.6-57.3l0-0.7l0-0.7c0.3-1.9-1.4-22.7-6.1-32.5c0,0,0,0,0,0
		c-0.5-1.8-2.7-2.5-4.2-1.5l-24.5,15.6c-1.5,1-2.3,2.7-2,4.5C224.8,124.4,228.4,135.2,228.6,138z"/>
</g>
<path class="st0" d="M184.6,101.3V4.5c0-3.5,3.8-5.6,6.8-3.8l80.5,48.4c2.9,1.7,2.9,5.9,0,7.7l-80.5,48.4
	C188.4,106.9,184.6,104.8,184.6,101.3z"/>
</svg>
