<?xml version="1.0" encoding="utf-8"?>
<!-- Generator: Adobe Illustrator 25.2.3, SVG Export Plug-In . SVG Version: 6.00 Build 0)  -->
<svg version="1.1" id="Layer_1" xmlns="http://www.w3.org/2000/svg" xmlns:xlink="http://www.w3.org/1999/xlink" x="0px" y="0px"
	 viewBox="0 0 274 274.3" style="enable-background:new 0 0 274 274.3;" xml:space="preserve">
<style type="text/css">
	.st0{fill:#FFFFFF;}
</style>
<g>
	<path class="st0" d="M240.1,124.2L240.1,124.2c0-0.1,0-0.1-0.1-0.2L240.1,124.2z"/>
</g>
<path class="st0" d="M241.8,166c0.1-6.6-7.1-10.8-12.7-7.5c0,0-0.1,0-0.1,0.1l-70.6,42.8c-6,3.6-12.6,5.5-19.2,5.5
	c-1.1,0-2.2-0.1-3.3-0.2c-9.3-0.9-16.6-5.3-21.7-12.9c-3.7-5.6-5.7-12.4-5.7-19.6V103c0-4.3,0.5-8.3,1.4-11.9
	c3.7-14.6,12.4-21.8,26.6-21.8c0.9,0,1.8,0,2.7,0.1c6.8,0.4,13.8,2.5,20.2,6c0,0,95.6,54.3,95.6,54.4c3.4,2.6,30.3,15.4,6.7,71.7
	c-23.9,44.9-70.3,72.8-121.1,72.8c0,0-1,0-1,0c-35.9-0.3-69.8-14.4-95.5-39.9c-25.7-25.5-40.1-59.3-40.6-95.2
	c-0.5-37,13.5-71.9,39.4-98.3C68.9,14.5,103.5,0,140.6,0c23.3,0,49.1,7.2,71,19.8c23.1,13.3,39.6,31.2,46.5,50.5
	c0.2,0.6,5,14.3-4.3,19.6c-2.9,1.7-5.7,2.5-8.2,2.5c-2.8,0-5.5-1-8.1-2.9c-1.6-1.2-3-2.8-4.2-4.9c-9.5-15.7-37.9-52.2-96.7-52.2
	l-0.4,0C77.8,32.5,33.8,77.6,33.8,137.1c0,28.1,9.5,54.5,26.9,74.4c18.3,21.1,43.9,32.7,72,32.7c0,0,0,0,0,0c2.7,0,5.6-0.1,8.3-0.3
	c41.7-3.2,78.2-26.5,95.4-60.7l0,0c0.2-0.4,0.3-0.7,0.4-1.1C240.5,176,241.7,170.4,241.8,166z M138.9,96.4c-1.1,0-2.2,0.3-3.2,0.9
	c-1.9,1.1-3.1,3.2-3.1,5.4v68.9c0,2.2,1.1,4.2,3,5.4c1,0.6,2.1,0.9,3.3,0.9c1,0,2-0.2,2.9-0.7l64-32.9c2.1-1.1,3.4-3.2,3.4-5.5
	s-1.2-4.5-3.2-5.6l-64-36C141,96.7,140,96.4,138.9,96.4z"/>
</svg>
