<?xml version="1.0" encoding="utf-8"?>
<!-- Generator: Adobe Illustrator 25.2.3, SVG Export Plug-In . SVG Version: 6.00 Build 0)  -->
<svg version="1.1" id="Layer_1" xmlns="http://www.w3.org/2000/svg" xmlns:xlink="http://www.w3.org/1999/xlink" x="0px" y="0px"
	 viewBox="0 0 24 24" style="enable-background:new 0 0 24 24;" xml:space="preserve">
<style type="text/css">
	.st0{fill:#FFFFFF;fill-opacity:0;}
	.st1{fill:#FFFFFF;}
</style>
<g>
	<rect y="0" class="st0" width="24" height="24"/>
	<path class="st1" d="M16.2,22c-0.6,0-1-0.4-1-1v-2.6c0.1-0.6-0.1-1.2-0.5-1.7c-0.4-0.4-0.3-1,0.1-1.4c0.2-0.1,0.3-0.2,0.6-0.3
		C17.8,14.8,20,14,20,9.8c0-0.8-0.2-1.6-0.7-2.2c-0.4-0.6-0.6-1.3-0.4-2.1C19,5,19,4.5,18.9,4.1c-0.7,0.3-1.5,0.6-2.1,1.1
		c-0.2,0.2-0.6,0.2-0.8,0.2c-1.8-0.5-3.7-0.5-5.5,0c-0.3,0.1-0.6,0-0.8-0.2C9,4.7,8.3,4.3,7.5,4.1C7.4,4.5,7.4,5,7.5,5.5
		c0.1,0.7,0,1.5-0.4,2.1C6.7,8.2,6.4,9,6.4,9.8c0,3.9,1.9,4.9,4.7,5.3c0.4,0,0.7,0.3,0.8,0.7c0.1,0.3,0,0.7-0.2,1
		c-0.4,0.4-0.6,1-0.6,1.6V21c0,0.6-0.4,1-1,1s-1-0.4-1-1v-0.6c-2,0.2-4-0.6-5.3-2.1c-0.3-0.4-0.7-0.7-1.2-0.9
		c-0.5-0.1-0.9-0.7-0.7-1.2c0.1-0.5,0.7-0.9,1.2-0.7c0.8,0.3,1.5,0.7,2,1.4c1,1,2,1.9,3.9,1.5c0-0.5,0-1.1,0.2-1.6c-2.1-0.5-5-2-5-7
		c0-1.2,0.3-2.3,1-3.3c0.1-0.2,0.2-0.4,0.1-0.6C5.3,4.8,5.4,3.7,5.8,2.7C6,2.4,6.2,2.2,6.5,2.1C6.8,2,8,1.8,10.3,3.3
		c1.9-0.4,3.8-0.4,5.7,0c2.3-1.5,3.5-1.3,3.9-1.2c0.3,0.1,0.5,0.3,0.6,0.6c0.4,1,0.5,2.1,0.3,3.2c0,0.2,0,0.4,0.1,0.6
		c0.7,1,1,2.2,1,3.3c0,5.1-2.9,6.5-5,7c0.2,0.5,0.3,1.1,0.2,1.7V21C17.2,21.5,16.8,22,16.2,22z"/>
</g>
</svg>
