<?xml version="1.0" encoding="utf-8"?>
<!-- Generator: Adobe Illustrator 25.2.3, SVG Export Plug-In . SVG Version: 6.00 Build 0)  -->
<svg version="1.1" id="Layer_1" xmlns="http://www.w3.org/2000/svg" xmlns:xlink="http://www.w3.org/1999/xlink" x="0px" y="0px"
	 viewBox="0 0 24 24" style="enable-background:new 0 0 24 24;" xml:space="preserve">
<style type="text/css">
	.st0{fill:#FFFFFF;fill-opacity:0;}
	.st1{fill:#FFFFFF;}
</style>
<g>
	<g>
		<rect y="0" class="st0" width="24" height="24"/>
		<path class="st1" d="M20,22h-1.7c-1.1,0-2-0.9-2-2v-5.4c0-0.4-0.3-0.8-0.7-0.9c-0.2,0-0.5,0-0.7,0.2c-0.2,0.2-0.3,0.4-0.3,0.6V20
			c0,1.1-0.9,2-2,2H11c-1.1,0-2-0.9-2-2v-5.5C9,11,11.9,8,15.5,8S22,11,22,14.5V20C22,21.1,21.1,22,20,22z M15.5,11.7
			c0.2,0,0.3,0,0.5,0c1.4,0.3,2.4,1.5,2.4,2.9V20H20v-5.5c0-2.5-2-4.5-4.5-4.5s-4.5,2-4.5,4.5V20h1.7v-5.5
			C12.7,13,13.9,11.7,15.5,11.7z"/>
		<path class="st1" d="M6,22H4c-1.1,0-2-0.9-2-2V10c0-1.1,0.9-2,2-2h2c1.1,0,2,0.9,2,2v10C8,21.1,7.1,22,6,22z M4,10v10h2V10H4z"/>
		<path class="st1" d="M5,7C3.3,7,2,5.7,2,4s1.3-3,3-3s3,1.3,3,3S6.7,7,5,7z M5,3C4.4,3,4,3.4,4,4s0.4,1,1,1s1-0.4,1-1S5.6,3,5,3z"
			/>
	</g>
</g>
</svg>
