<?xml version="1.0" encoding="utf-8"?>
<!-- Generator: Adobe Illustrator 25.2.3, SVG Export Plug-In . SVG Version: 6.00 Build 0)  -->
<svg version="1.1" id="Layer_1" xmlns="http://www.w3.org/2000/svg" xmlns:xlink="http://www.w3.org/1999/xlink" x="0px" y="0px"
	 viewBox="0 0 24 24" style="enable-background:new 0 0 24 24;" xml:space="preserve">
<style type="text/css">
	.st0{fill:#FFFFFF;fill-opacity:0;}
	.st1{fill:#FFFFFF;}
</style>
<g>
	<g>
		<path class="st0" d="M0,22.5c-0.3,0-0.5-0.2-0.5-0.5V-2c0-0.3,0.2-0.5,0.5-0.5h24c0.3,0,0.5,0.2,0.5,0.5v24c0,0.3-0.2,0.5-0.5,0.5
			H0z"/>
		<rect y="-2" class="st0" width="24" height="24"/>
		<path class="st1" d="M12,12.5c2.5,0,4.5-2,4.5-4.5s-2-4.5-4.5-4.5S7.5,5.5,7.5,8S9.5,12.5,12,12.5z M12,5.8c1.2,0,2.2,1,2.2,2.2
			s-1,2.2-2.2,2.2S9.8,9.2,9.8,8S10.8,5.8,12,5.8z"/>
		<path class="st1" d="M18,19.5c-0.8,0-1.5-0.7-1.5-1.5c0-2.5-2-4.5-4.5-4.5s-4.5,2-4.5,4.5c0,0.8-0.7,1.5-1.5,1.5S4.5,18.8,4.5,18
			c0-4.1,3.4-7.5,7.5-7.5s7.5,3.4,7.5,7.5C19.5,18.8,18.8,19.5,18,19.5z"/>
		<path class="st1" d="M12,11c-3.9,0-7,3.1-7,7c0,0.6,0.4,1,1,1s1-0.4,1-1c0-2.8,2.2-5,5-5s5,2.2,5,5c0,0.6,0.4,1,1,1s1-0.4,1-1
			C19,14.1,15.9,11,12,11z"/>
	</g>
</g>
<path class="st1" d="M14.6,5"/>
</svg>
