<?xml version="1.0" encoding="utf-8"?>
<!-- Generator: Adobe Illustrator 25.2.3, SVG Export Plug-In . SVG Version: 6.00 Build 0)  -->
<svg version="1.1" id="Layer_1" xmlns="http://www.w3.org/2000/svg" xmlns:xlink="http://www.w3.org/1999/xlink" x="0px" y="0px"
	 viewBox="0 0 24 24" style="enable-background:new 0 0 24 24;" xml:space="preserve">
<style type="text/css">
	.st0{fill:#FFFFFF;fill-opacity:0;}
	.st1{fill:#FFFFFF;}
</style>
<g>
	<g>
		<rect class="st0" width="24" height="24"/>
		<path class="st1" d="M12.9,22H11c-0.9,0-1.7-0.8-1.7-1.7l0,0v-1.1c0-0.1-0.1-0.2-0.2-0.3c-0.1-0.1-0.3-0.1-0.4,0L8,19.7
			c-0.6,0.7-1.7,0.7-2.4,0c0,0,0,0,0,0l-1.4-1.3c-0.3-0.3-0.5-0.7-0.5-1.2c0-0.5,0.2-0.9,0.5-1.2L5,15.3c0.1-0.1,0.1-0.3,0-0.4
			c-0.1-0.1-0.2-0.3-0.3-0.3h-1c-0.9,0-1.7-0.8-1.7-1.7V11c0-0.9,0.8-1.7,1.7-1.7h0h1.1c0.1,0,0.2-0.1,0.3-0.2
			c0.1-0.1,0.1-0.3,0-0.4L4.3,8c-0.7-0.6-0.7-1.7,0-2.4c0,0,0,0,0,0l1.3-1.4c0.3-0.3,0.7-0.5,1.2-0.5c0.5,0,0.9,0.2,1.2,0.5L8.7,5
			C8.9,5.1,9,5.1,9.1,5c0.1-0.1,0.3-0.2,0.3-0.3v-1c0-0.9,0.8-1.7,1.7-1.7H13c0.9,0,1.7,0.8,1.7,1.7v0v1.1c0,0.1,0.1,0.2,0.2,0.3
			c0.1,0.1,0.3,0.1,0.4,0L16,4.3c0.6-0.7,1.7-0.7,2.4,0c0,0,0,0,0,0l1.4,1.3c0.3,0.3,0.5,0.7,0.5,1.2c0,0.5-0.2,0.9-0.5,1.2L19,8.7
			c-0.1,0.1-0.1,0.3,0,0.4c0.1,0.1,0.2,0.3,0.3,0.3h1.1c0.9,0,1.6,0.8,1.6,1.7V13c0,0.9-0.8,1.7-1.7,1.7l0,0h-1.1
			c-0.1,0-0.2,0.1-0.3,0.2c-0.1,0.1-0.1,0.3,0,0.4l0.8,0.8c0.7,0.6,0.7,1.7,0,2.4c0,0,0,0,0,0l-1.3,1.3c-0.3,0.3-0.7,0.5-1.2,0.5
			c-0.4,0-0.9-0.2-1.2-0.5L15.3,19c-0.1-0.1-0.3-0.1-0.4,0c-0.1,0.1-0.3,0.2-0.3,0.3v1.1C14.6,21.3,13.8,22,12.9,22z M11.4,20h1.3
			v-0.8c0-0.9,0.6-1.8,1.5-2.1c0.9-0.4,1.9-0.2,2.6,0.5l0.5,0.5l0.9-0.9l-0.5-0.5c-0.7-0.7-0.9-1.7-0.5-2.6c0.4-0.9,1.2-1.4,2.1-1.4
			H20v-1.3h-0.8c-0.9,0-1.8-0.6-2.1-1.5C16.7,9,16.9,8,17.6,7.3l0.5-0.5l-0.9-0.9l-0.5,0.5c-1,0.9-2.5,0.8-3.4-0.2
			c-0.4-0.4-0.6-1-0.6-1.5V4h-1.3v0.8c0,0.9-0.6,1.8-1.5,2.1C9,7.3,8,7.1,7.3,6.4L6.8,5.9L5.9,6.8l0.5,0.6c0.9,1,0.8,2.5-0.2,3.4
			c-0.4,0.4-1,0.6-1.5,0.6H4v1.3h0.8c0.9,0,1.8,0.6,2.1,1.5c0.4,0.9,0.2,1.9-0.5,2.6l-0.5,0.5l0.9,0.9l0.6-0.5
			c1-0.9,2.5-0.8,3.4,0.2c0.4,0.4,0.6,1,0.6,1.5L11.4,20z"/>
		<path class="st1" d="M12,15.5c-1.9,0-3.5-1.6-3.5-3.5s1.6-3.5,3.5-3.5s3.5,1.6,3.5,3.5S13.9,15.5,12,15.5z M12,10.5
			c-0.8,0-1.5,0.7-1.5,1.5s0.7,1.5,1.5,1.5s1.5-0.7,1.5-1.5S12.8,10.5,12,10.5z"/>
	</g>
</g>
</svg>
