<?xml version="1.0" encoding="utf-8"?>
<!-- Generator: Adobe Illustrator 25.2.3, SVG Export Plug-In . SVG Version: 6.00 Build 0)  -->
<svg version="1.1" id="Layer_1" xmlns="http://www.w3.org/2000/svg" xmlns:xlink="http://www.w3.org/1999/xlink" x="0px" y="0px"
	 viewBox="0 0 24 24" style="enable-background:new 0 0 24 24;" xml:space="preserve">
<style type="text/css">
	.st0{fill:#FFFFFF;fill-opacity:0;}
	.st1{fill:#FFFFFF;}
</style>
<g>
	<g>
		<path class="st0" d="M1.7,24.5c-0.3,0-0.5-0.2-0.5-0.5V0c0-0.3,0.2-0.5,0.5-0.5h20c0.3,0,0.5,0.2,0.5,0.5v24
			c0,0.3-0.2,0.5-0.5,0.5H1.7z"/>
		<rect x="1.7" y="0" class="st0" width="20" height="24"/>
		<path class="st1" d="M7.5,22.5c-1.7,0-3-1.6-3-3.5V8.5H4.2C3.4,8.5,2.8,7.8,2.8,7s0.6-1.5,1.3-1.5h3.7V4.3c0-1.6,1.2-2.8,2.5-2.8
			c0,0,2.6,0,2.6,0c1.4,0,2.5,1.2,2.6,2.8v1.2h3.7c0.7,0,1.3,0.7,1.3,1.5s-0.6,1.5-1.3,1.5h-0.3V19c0,1.9-1.3,3.5-3,3.5H7.5z
			 M7.2,19c0,0.3,0.2,0.5,0.3,0.5h8.3c0.2,0,0.3-0.2,0.3-0.5V8.5h-9V19z M13.8,6.5v-3H9.5v3H13.8z"/>
		<path class="st1" d="M19.2,6H15V4.3C15,3,14,2,12.9,2h-2.5c-1.1,0-2,1-2.1,2.3V6H4.2C3.7,6,3.3,6.4,3.3,7s0.4,1,0.8,1H5v11
			c0,1.7,1.1,3,2.5,3h8.3c1.4,0,2.5-1.3,2.5-3V8h0.8C19.6,8,20,7.6,20,7S19.6,6,19.2,6z M10,4.3C10,4.2,10.2,4,10.4,4h2.5
			c0.2,0,0.4,0.2,0.4,0.3V6H10V4.3z M16.7,19c0,0.6-0.4,1-0.8,1H7.5c-0.5,0-0.8-0.4-0.8-1V8h10V19z"/>
	</g>
</g>
</svg>
