<?xml version="1.0" encoding="utf-8"?>
<!-- Generator: Adobe Illustrator 25.2.3, SVG Export Plug-In . SVG Version: 6.00 Build 0)  -->
<svg version="1.1" id="Layer_1" xmlns="http://www.w3.org/2000/svg" xmlns:xlink="http://www.w3.org/1999/xlink" x="0px" y="0px"
	 viewBox="0 0 182 274.3" style="enable-background:new 0 0 182 274.3;" xml:space="preserve">
<style type="text/css">
	.st0{fill:#FFFFFF;}
</style>
<g>
	<path class="st0" d="M173.8,4.1c-5.2-2.8-8.3,3.7-8.3,3.7l-55.1,112.3c-18.5,31.2-22,30-22,30c-3.4-1.9,0.1-11.2,0.1-11.2L108.6,91
		c24.6-45.8,6.5-48.2,6.5-48.2c-30.3-4.5-40.3,83.4-40.3,83.4c-3.7,28.5-23.9,58.4-23.9,58.4c-31.4,50.9-41.2,15.4-41.2,15.4
		c-6.8,1.7-5.9,6.1-5.9,6.1c30.7,67,73.8-42.4,73.8-42.4c15.7,32.1,52.6-53.3,52.6-53.3c-26,83.7-26.6,146.1-26.6,146.1
		c-0.7,11.4,6,13,6,13c9.4,1.9,9.2-8.4,9.2-8.4c7.6-157.7,57.2-246.8,57.2-246.8C179.3,6.9,173.8,4.1,173.8,4.1z M105.7,61.3
		c0,0-7.2,25.1-13.7,32.8C92,94.1,96.3,70.9,105.7,61.3z"/>
	<path class="st0" d="M27.3,169.1c0,0,20.3,15.3,65.9,28.5c0,0,5.9,1,6,5.1c0,0,0.6,7.2-6,6c0,0-50.2-15.3-70.4-32.9
		c0,0-4.7-3.3-4-5.7C18.8,170.2,19.3,164.6,27.3,169.1z"/>
	<path class="st0" d="M27,173.1c0,0,47.8,54.3,88.7,86.2c0,0,3.8,4.6,1.2,7.8c0,0-6,5.9-10.6,0.5c0,0-64.1-51.4-87.2-92.2
		c0,0-1.4-5.5,0.7-7C19.9,168.3,24,164.4,27,173.1z"/>
</g>
</svg>
