<?xml version="1.0" encoding="utf-8"?>
<!-- Generator: Adobe Illustrator 25.2.3, SVG Export Plug-In . SVG Version: 6.00 Build 0)  -->
<svg version="1.1" id="Layer_1" xmlns="http://www.w3.org/2000/svg" xmlns:xlink="http://www.w3.org/1999/xlink" x="0px" y="0px"
	 viewBox="0 0 24 24" style="enable-background:new 0 0 24 24;" xml:space="preserve">
<style type="text/css">
	.st0{fill:#FFFFFF;fill-opacity:0;}
	.st1{fill:#FFFFFF;}
</style>
<g>
	<g>
		<path class="st0" d="M0,24.5c-0.3,0-0.5-0.2-0.5-0.5V0c0-0.3,0.2-0.5,0.5-0.5h24c0.3,0,0.5,0.2,0.5,0.5v24c0,0.3-0.2,0.5-0.5,0.5
			H0z"/>
		<rect y="0" class="st0" width="24" height="24"/>
		<path class="st1" d="M20,21.5c-0.4,0-0.8-0.2-1.1-0.4L15.9,18c-1.4,1-3.1,1.5-4.8,1.5c-4.7,0-8.5-3.8-8.5-8.5
			c0-4.7,3.8-8.5,8.5-8.5c4.7,0,8.5,3.8,8.5,8.5c0,1.7-0.5,3.4-1.5,4.9l3.1,3.1c0.3,0.3,0.4,0.7,0.4,1.1c0,0.4-0.2,0.8-0.4,1.1
			C20.8,21.4,20.4,21.5,20,21.5z M11,5.5C8,5.5,5.5,8,5.5,11c0,3,2.5,5.5,5.5,5.5c3,0,5.5-2.5,5.5-5.5C16.5,8,14,5.5,11,5.5z"/>
	</g>
</g>
</svg>
